<?xml version="1.0" encoding="UTF-8"?>
<svg width="24" height="24" version="1.1" xmlns="http://www.w3.org/2000/svg" xmlns:cc="http://creativecommons.org/ns#" xmlns:dc="http://purl.org/dc/elements/1.1/" xmlns:rdf="http://www.w3.org/1999/02/22-rdf-syntax-ns#">
 <metadata>
  <rdf:RDF>
   <cc:Work rdf:about="">
    <dc:format>image/svg+xml</dc:format>
    <dc:type rdf:resource="http://purl.org/dc/dcmitype/StillImage"/>
   </cc:Work>
  </rdf:RDF>
 </metadata>
 <path d="m5 3h14v18h-14z"/>
 <g fill="none" stroke="#4a90e2" stroke-linecap="round" stroke-width="1.3">
  <path d="m5.6562 6.1562a2.5 2.5 0 0 0 2.5-2.5"/>
  <path d="m5.6562 9.1562a5.5 5.5 0 0 0 5.5-5.5" stroke-opacity=".65"/>
  <path d="m5.6562 12.156a8.5 8.5 0 0 0 8.5-8.5" stroke-opacity=".35"/>
  <path d="m18.369 17.869a2.5 2.5 0 0 0-2.5 2.5"/>
  <path d="m18.369 14.869a5.5 5.5 0 0 0-5.5 5.5" stroke-opacity=".65"/>
  <path d="m18.344 11.844a8.5 8.5 0 0 0-8.5 8.5" stroke-opacity=".35"/>
 </g>
 <path d="m5 3h14v18h-14z" fill="none" stroke="#fff" stroke-opacity=".5"/>
</svg>
