<?xml version="1.0" encoding="UTF-8" standalone="no"?>
<svg
   id="svg5375"
   width="24"
   height="24"
   version="1.1"
   sodipodi:docname="tm_cloud_server.svg"
   inkscape:version="1.4 (e7c3feb1, 2024-10-09)"
   xmlns:inkscape="http://www.inkscape.org/namespaces/inkscape"
   xmlns:sodipodi="http://sodipodi.sourceforge.net/DTD/sodipodi-0.dtd"
   xmlns="http://www.w3.org/2000/svg"
   xmlns:svg="http://www.w3.org/2000/svg"
   xmlns:rdf="http://www.w3.org/1999/02/22-rdf-syntax-ns#"
   xmlns:cc="http://creativecommons.org/ns#"
   xmlns:dc="http://purl.org/dc/elements/1.1/">
  <defs
     id="defs1">
    <linearGradient
       id="swatch3"
       inkscape:swatch="solid">
      <stop
         style="stop-color:#000000;stop-opacity:1;"
         offset="0"
         id="stop3" />
    </linearGradient>
  </defs>
  <sodipodi:namedview
     id="namedview1"
     pagecolor="#ffffff"
     bordercolor="#000000"
     borderopacity="0.25"
     inkscape:showpageshadow="2"
     inkscape:pageopacity="0.0"
     inkscape:pagecheckerboard="0"
     inkscape:deskcolor="#d1d1d1"
     inkscape:zoom="22.905628"
     inkscape:cx="13.184533"
     inkscape:cy="11.241779"
     inkscape:window-width="1400"
     inkscape:window-height="702"
     inkscape:window-x="0"
     inkscape:window-y="34"
     inkscape:window-maximized="0"
     inkscape:current-layer="svg5375"
     inkscape:export-bgcolor="#ffffff00" />
  <metadata
     id="metadata5380">
    <rdf:RDF>
      <cc:Work
         rdf:about="">
        <dc:format>image/svg+xml</dc:format>
        <dc:type
           rdf:resource="http://purl.org/dc/dcmitype/StillImage" />
        <dc:title />
      </cc:Work>
    </rdf:RDF>
  </metadata>
  <g
     id="layer1">
    <path
       id="path5385"
       d="m4.0893 8.7321c0.97385-0.40338 2.9107 0.26791 2.9107 0.26791s1.8255-3.0485 4.2326-2.9377c2.5265 0.11629 3.7674 1.9377 3.7674 1.9377s1.0516-1.1191 2.554-0.43719c1.3567 0.6158 1.446 1.9372 1.446 1.9372s1.8282-0.60941 2.8214 0.52699c1.3566 1.5523 0.54465 4.9284-0.78558 5.7321-1.3231 0.79945-2.5358 0.74092-2.5358 0.74092s-2.1876 0.04616-3.366 0.03582c-1.3437-0.01179-3.134-0.03582-3.134-0.03582s-3.2322 0.0015-4.4107-0.0088c-1.3437-0.01182-1.0893 0.0088-2.5893 0.0088-2.5 0-3.4175-2.9538-3.2679-4.6874 0.096139-1.1139 1.3243-2.6526 2.3572-3.0805z"
       fill="#fff"
       fill-opacity=".87843"
       stroke="#000"
       stroke-opacity=".50222" />
  </g>
  <ellipse
     style="fill:#c0c0a3;fill-opacity:1;stroke:#777777;stroke-width:0.925;stroke-linecap:square;stroke-linejoin:round;stroke-miterlimit:0;stroke-dasharray:none;stroke-opacity:0.941176;paint-order:fill markers stroke"
     id="path1"
     cx="12.311385"
     cy="17.637589"
     rx="6.6359239"
     ry="2.4448142" />
  <ellipse
     style="fill:#c0c0a3;fill-opacity:1;stroke:#777777;stroke-width:0.925;stroke-linecap:square;stroke-linejoin:round;stroke-miterlimit:0;stroke-dasharray:none;stroke-opacity:0.941176;paint-order:fill markers stroke"
     id="path1-7"
     cx="12.291991"
     cy="15.48722"
     rx="6.6359239"
     ry="2.4448142" />
  <ellipse
     style="fill:#c0c0a3;fill-opacity:1;stroke:#777777;stroke-width:0.925;stroke-linecap:square;stroke-linejoin:round;stroke-miterlimit:0;stroke-dasharray:none;stroke-opacity:0.941176;paint-order:fill markers stroke"
     id="path1-2"
     cx="12.264812"
     cy="13.291989"
     rx="6.6359239"
     ry="2.4448142" />
</svg>
