<?xml version="1.0" encoding="UTF-8"?>
<svg width="24" height="24" version="1.1" xmlns="http://www.w3.org/2000/svg" xmlns:cc="http://creativecommons.org/ns#" xmlns:dc="http://purl.org/dc/elements/1.1/" xmlns:rdf="http://www.w3.org/1999/02/22-rdf-syntax-ns#">
 <metadata>
  <rdf:RDF>
   <cc:Work rdf:about="">
    <dc:format>image/svg+xml</dc:format>
    <dc:type rdf:resource="http://purl.org/dc/dcmitype/StillImage"/>
   </cc:Work>
  </rdf:RDF>
 </metadata>
 <g>
  <path d="m5 3h14v18h-14z" fill="#fff"/>
  <g fill="none" stroke="#4a90e2" stroke-linecap="round" stroke-width="1.3">
   <path d="m6.1609 6.6609a2.5 2.5 0 0 0 2.5-2.5"/>
   <path d="m6.1356 9.6356a5.5 5.5 0 0 0 5.5-5.5" stroke-opacity=".65"/>
   <path d="m6.1861 12.61a8.5 8.5 0 0 0 8.5-8.5" stroke-opacity=".35"/>
   <path d="m17.864 17.364a2.5 2.5 0 0 0-2.5 2.5"/>
   <path d="m17.839 14.339a5.5 5.5 0 0 0-5.5 5.5" stroke-opacity=".65"/>
   <path d="m17.89 11.39a8.5 8.5 0 0 0-8.5 8.5" stroke-opacity=".35"/>
  </g>
  <path d="m5 3h14v18h-14z" fill="none" stroke="#000" stroke-opacity=".5"/>
 </g>
</svg>
