/* XPM */
static const char *tm_cloud_admin[] = {
/* columns rows colors chars-per-pixel */
"24 24 56 1 ",
"  c black",
". c #1D441D441D44",
"X c #2BC92BC92BC9",
"o c #32D832D832D8",
"O c #3E433E433E43",
"+ c #41F041F041F0",
"@ c #4F8A4F8A4F8A",
"# c #538C538C538C",
"$ c #5E705E705E70",
"% c #5FAF5FAF5FAF",
"& c #676067606760",
"* c #6BD2686C65D4",
"= c #696B696B696B",
"- c #777B777A777A",
"; c #787777A37701",
": c #798879887988",
"> c #7FF17FF17FF1",
", c #8B757AEA6E47",
"< c #9B2A7D9F670D",
"1 c #90607BC26C03",
"2 c #817E793272DB",
"3 c #82AE7ECA7BD1",
"4 c #A7C47FCB6142",
"5 c #AB8080705F8A",
"6 c #877A82337E2C",
"7 c #CEC786854F52",
"8 c #C49784C35401",
"9 c #CAE685DA511B",
"0 c #86AB86AB86AB",
"q c #8DD2872B8216",
"w c #8F988F988F98",
"e c #9085896383F0",
"r c #9B2D92AF8C32",
"t c #95BC95BC95BC",
"y c #993199319931",
"u c #A66E9D52965D",
"i c #A9249FFE9901",
"p c #AE9FA5C99F0A",
"a c #A505A505A505",
"s c #AE49AE49AE49",
"d c #B372AA7EA3A7",
"f c #B877AFC9A929",
"g c #B64DB64DB64D",
"h c #BA20BA20BA20",
"j c #C1D0B9EBB3E2",
"k c #C1EBC1EBC1EB",
"l c #CE08CE08CE08",
"z c #D3BFCE26C9DF",
"x c #D810D810D810",
"c c #DCCFDCCFDCCF",
"v c #E0D1DD58DAB0",
"b c #E4E0E217DFF7",
"n c #E1B2E1B2E1B2",
"m c #EFFFEFFFEFFF",
"M c #F2BCF226F1B4",
"N c #FFFEFFFEFFFE",
/* pixels */
"NNNNNNNNNNNNNNNNNNNNNNNN",
"NNNNNNNNNNNNNNNNNNNNNNNN",
"NNNNNNNNNNNNNNNNNNNNNNNN",
"NNNNNNNNNNNNNNNNNNNNNNNN",
"NNNNNNNNNNNNNNNNNNNNNNNN",
"NNNNNNNNNNNNNNNNNNNNNNNN",
"NNNNNNNNNgo  #nNNNNNNNNN",
"NNNNNNNN- yxk$ s$#gNNNNN",
"NNNNhtgw cNa-xh :: tNNNN",
"NNNO +  xNN--gNmNNk X&mN",
"NN=.MNNmNNN3,pNNNNN=a# N",
"Nn cNNNNNNv-8-MNNNNNNN s",
"Nh NNMmNNme57<ibMMgbNN$0",
"Nl NN--;--2978,-----NN#0",
"NM cN--1877777778--gNN l",
"NN@oNNmq19777778;dNNN: N",
"NNM. &==;,77777;2:-$  cN",
"NNNMk-----77777;*&=:hNNN",
"NNNNNNNNz,794871jNNNNNNN",
"NNNNNNNNf<5-r-<5rNNNNNNN",
"NNNNNNNc--6vNmu--gNNNNNN",
"NNNNNNNl--NNNNNy-wNNNNNN",
"NNNNNNNNcMNNNNNNlMNNNNNN",
"NNNNNNNNNNNNNNNNNNNNNNNN"
};
