/* XPM */
static const char *tm_cloud_server[] = {
/* columns rows colors chars-per-pixel */
"24 24 45 1 ",
"  c black",
". c #1D441D441D44",
"X c #2BC92BC92BC9",
"o c #32D832D832D8",
"O c #3E433E433E43",
"+ c #41F041F041F0",
"@ c #4F8A4F8A4F8A",
"# c #538C538C538C",
"$ c #5E705E705E70",
"% c #62B262B262B2",
"& c #696B696B696B",
"* c #777677767776",
"= c #780F780F77D2",
"- c #7C8C7C8C7A87",
"; c #83DB83DB7EEF",
": c #86AB86AB86AB",
"> c #8E348E34852C",
", c #8F988F988F98",
"< c #91B291B28746",
"1 c #93A293A28871",
"2 c #9CCD9CCD8DF8",
"3 c #957295729233",
"4 c #993199319931",
"5 c #A3D9A3D99237",
"6 c #A975A9759599",
"7 c #AE99AE9998B2",
"8 c #B552B5529CBF",
"9 c #BAA6BAA69FF6",
"0 c #A715A715A366",
"q c #AE49AE49AE49",
"w c #BDB8BDB8A1CF",
"e c #B662B662B662",
"r c #B7BDB7BDB7BD",
"t c #BA20BA20BA20",
"y c #C0C0C0C0A3A3",
"u c #C1EBC1EBC1EB",
"i c #CE08CE08CE08",
"p c #D0A9D0A9CE4B",
"a c #D810D810D810",
"s c #DD38DD38DD38",
"d c #E1B2E1B2E1B2",
"f c #E8D5E8D5E802",
"g c #EFFFEFFFEFFF",
"h c #F11BF11BF0CB",
"j c #FFFEFFFEFFFE",
/* pixels */
"jjjjjjjjjjjjjjjjjjjjjjjj",
"jjjjjjjjjjjjjjjjjjjjjjjj",
"jjjjjjjjjjjjjjjjjjjjjjjj",
"jjjjjjjjjjjjjjjjjjjjjjjj",
"jjjjjjjjjjjjjjjjjjjjjjjj",
"jjjjjjjjjjjjjjjjjjjjjjjj",
"jjjjjjjjjeo  #djjjjjjjjj",
"jjjjjjjj* 4au$ q$#ejjjjj",
"jjjjt3e, sjjjjt -- 3jjjj",
"jjjO +  ajjjjjjgjju X%gj",
"jj&.hjjgjjjhgghjjjj&0# j",
"jd sjjjs4*******:thjjj q",
"jt jjj3*58wyyyy96>*ajj$:",
"ji jjp;wyyyyyyyywy7*jj#:",
"jh sjd*6wyyyyyyyy91>jj i",
"jj@ojs-**<567762;*>*j- j",
"jjh. &*885<;-;>2695*  sj",
"jjjhu*;*>58999872*--tjjj",
"jjjjjs-85>=****;287*jjjj",
"jjjjjj0-289yyyw86>*ajjjj",
"jjjjjjjfq-******,uhjjjjj",
"jjjjjjjjjjjhhhjjjjjjjjjj",
"jjjjjjjjjjjjjjjjjjjjjjjj",
"jjjjjjjjjjjjjjjjjjjjjjjj"
};
